<svg width="1920" height="1080" viewBox="0 0 1920 1080" fill="none" xmlns="http://www.w3.org/2000/svg">
  <defs>
    <linearGradient id="heroGrad6" x1="0%" y1="0%" x2="100%" y2="100%">
      <stop offset="0%" style="stop-color:#0f0f23;stop-opacity:1" />
      <stop offset="25%" style="stop-color:#1a1a2e;stop-opacity:1" />
      <stop offset="60%" style="stop-color:#533483;stop-opacity:1" />
      <stop offset="100%" style="stop-color:#ffd700;stop-opacity:0.7" />
    </linearGradient>
    <radialGradient id="spotlight6" cx="60%" cy="40%" r="50%">
      <stop offset="0%" style="stop-color:#ffd700;stop-opacity:0.15" />
      <stop offset="100%" style="stop-color:#ffd700;stop-opacity:0" />
    </radialGradient>
  </defs>
  
  <!-- Base gradient background -->
  <rect width="1920" height="1080" fill="url(#heroGrad6)"/>
  
  <!-- Spotlight effect -->
  <rect width="1920" height="1080" fill="url(#spotlight6)"/>
  
  <!-- Golden ratio spiral -->
  <path d="M960,540 Q1060,440 1160,540 Q1060,640 960,540" stroke="#ffd700" stroke-width="1" fill="none" opacity="0.2"/>
  <path d="M960,540 Q860,640 760,540 Q860,440 960,540" stroke="#ffd700" stroke-width="0.8" fill="none" opacity="0.15"/>
  
  <!-- Constellation pattern -->
  <circle cx="400" cy="200" r="2" fill="#ffffff" opacity="0.8"/>
  <circle cx="450" cy="180" r="1.5" fill="#ffffff" opacity="0.7"/>
  <circle cx="500" cy="220" r="1" fill="#ffffff" opacity="0.9"/>
  <line x1="400" y1="200" x2="450" y2="180" stroke="#ffffff" stroke-width="0.5" opacity="0.3"/>
  <line x1="450" y1="180" x2="500" y2="220" stroke="#ffffff" stroke-width="0.5" opacity="0.3"/>
  
  <!-- Abstract lens flares -->
  <ellipse cx="1400" cy="300" rx="80" ry="20" fill="#ffd700" opacity="0.1" transform="rotate(45 1400 300)"/>
  <ellipse cx="1420" cy="320" rx="60" ry="15" fill="#ffd700" opacity="0.08" transform="rotate(45 1420 320)"/>
  
  <!-- Geometric grid -->
  <defs>
    <pattern id="grid6" width="80" height="80" patternUnits="userSpaceOnUse">
      <path d="M 80 0 L 0 0 0 80" fill="none" stroke="#ffffff" stroke-width="0.3" opacity="0.08"/>
    </pattern>
  </defs>
  <rect width="1920" height="1080" fill="url(#grid6)"/>
</svg>