<svg width="1920" height="1080" viewBox="0 0 1920 1080" fill="none" xmlns="http://www.w3.org/2000/svg">
  <defs>
    <linearGradient id="heroGrad4" x1="0%" y1="0%" x2="100%" y2="100%">
      <stop offset="0%" style="stop-color:#0f0f23;stop-opacity:1" />
      <stop offset="25%" style="stop-color:#16213e;stop-opacity:1" />
      <stop offset="60%" style="stop-color:#0f3460;stop-opacity:1" />
      <stop offset="100%" style="stop-color:#4cc9f0;stop-opacity:0.8" />
    </linearGradient>
    <radialGradient id="spotlight4" cx="80%" cy="20%" r="45%">
      <stop offset="0%" style="stop-color:#4cc9f0;stop-opacity:0.15" />
      <stop offset="100%" style="stop-color:#4cc9f0;stop-opacity:0" />
    </radialGradient>
  </defs>
  
  <!-- Base gradient background -->
  <rect width="1920" height="1080" fill="url(#heroGrad4)"/>
  
  <!-- Spotlight effect -->
  <rect width="1920" height="1080" fill="url(#spotlight4)"/>
  
  <!-- Abstract wave patterns -->
  <path d="M0,600 Q480,400 960,600 T1920,600" stroke="#ffffff" stroke-width="1" fill="none" opacity="0.1"/>
  <path d="M0,700 Q480,500 960,700 T1920,700" stroke="#ffffff" stroke-width="0.8" fill="none" opacity="0.08"/>
  <path d="M0,800 Q480,600 960,800 T1920,800" stroke="#ffffff" stroke-width="0.6" fill="none" opacity="0.06"/>
  
  <!-- Hexagonal patterns -->
  <polygon points="200,200 240,180 280,200 280,240 240,260 200,240" fill="none" stroke="#ffffff" stroke-width="1" opacity="0.12"/>
  <polygon points="1600,800 1640,780 1680,800 1680,840 1640,860 1600,840" fill="none" stroke="#ffffff" stroke-width="1" opacity="0.1"/>
  
  <!-- Light rays -->
  <line x1="1500" y1="100" x2="1520" y2="300" stroke="#4cc9f0" stroke-width="2" opacity="0.3"/>
  <line x1="1510" y1="100" x2="1530" y2="300" stroke="#4cc9f0" stroke-width="1" opacity="0.2"/>
  <line x1="1520" y1="100" x2="1540" y2="300" stroke="#4cc9f0" stroke-width="0.5" opacity="0.1"/>
</svg>